<svg width="30" height="30" viewBox="0 0 30 30" fill="none" xmlns="http://www.w3.org/2000/svg">
<path d="M21.8792 0H8.12071C3.64288 0 0 3.64288 0 8.12071V21.8795C0 26.3571 3.64288 29.9999 8.12071 29.9999H21.8795C26.3571 29.9999 29.9999 26.3571 29.9999 21.8795V8.12071C29.9999 3.64288 26.3571 0 21.8792 0V0ZM28.2412 21.8795C28.2412 25.3873 25.3873 28.2412 21.8792 28.2412H8.12071C4.61265 28.2412 1.75872 25.3873 1.75872 21.8795V8.12071C1.75872 4.61265 4.61265 1.75872 8.12071 1.75872H21.8795C25.3873 1.75872 28.2412 4.61265 28.2412 8.12071V21.8795Z" fill="#756363"/>
<path d="M14.9998 6.79709C10.4766 6.79709 6.79688 10.4768 6.79688 15C6.79688 19.5231 10.4766 23.2029 14.9998 23.2029C19.5229 23.2029 23.2026 19.5231 23.2026 15C23.2026 10.4768 19.5229 6.79709 14.9998 6.79709ZM14.9998 21.4441C11.4466 21.4441 8.5556 18.5534 8.5556 15C8.5556 11.4468 11.4466 8.55582 14.9998 8.55582C18.5531 8.55582 21.4439 11.4468 21.4439 15C21.4439 18.5534 18.5531 21.4441 14.9998 21.4441Z" fill="#756363"/>
<path d="M23.3994 3.88389C22.0628 3.88389 20.9756 4.9713 20.9756 6.30774C20.9756 7.64441 22.0628 8.73182 23.3994 8.73182C24.7361 8.73182 25.8235 7.64441 25.8235 6.30774C25.8235 4.97107 24.7361 3.88389 23.3994 3.88389ZM23.3994 6.97287C23.0328 6.97287 22.7343 6.67441 22.7343 6.30774C22.7343 5.94085 23.0328 5.64261 23.3994 5.64261C23.7663 5.64261 24.0648 5.94085 24.0648 6.30774C24.0648 6.67441 23.7663 6.97287 23.3994 6.97287Z" fill="#756363"/>
</svg>
