<svg width="50" height="50" viewBox="0 0 50 50" fill="none" xmlns="http://www.w3.org/2000/svg">
<path d="M24.9997 0C14.3755 0 5.73242 8.64427 5.73242 19.2696C5.73242 26.8619 8.91101 34.5416 14.9246 41.4789C19.4161 46.6604 23.8673 49.5961 24.0548 49.7186C24.3417 49.9063 24.6708 50 24.9999 50C25.3288 50 25.6579 49.9063 25.9451 49.7186C26.1323 49.5961 30.5842 46.6604 35.0757 41.4792C41.0898 34.5416 44.2686 26.8619 44.2686 19.2696C44.2684 8.64427 35.6243 0 24.9997 0ZM24.9997 46.1519C21.4561 43.5113 9.18691 33.3487 9.18691 19.2696C9.18691 10.5491 16.2803 3.45449 24.9997 3.45449C33.7197 3.45449 40.8139 10.5491 40.8139 19.2696C40.8139 33.3487 28.5435 43.5113 24.9997 46.1519Z" fill="#EB5757"/>
<path d="M25.0008 11.6183C20.7841 11.6183 17.3535 15.0491 17.3535 19.2663C17.3535 23.4824 20.7841 26.9125 25.0008 26.9125C29.2176 26.9125 32.6479 23.4824 32.6479 19.2663C32.6479 15.0493 29.2174 11.6183 25.0008 11.6183ZM25.0008 23.458C22.6889 23.458 20.808 21.5776 20.808 19.2663C20.808 16.9539 22.6889 15.0728 25.0008 15.0728C27.3126 15.0728 29.1934 16.9539 29.1934 19.2663C29.1934 21.5776 27.3126 23.458 25.0008 23.458Z" fill="#EB5757"/>
</svg>

