<svg width="30" height="30" viewBox="0 0 30 30" fill="none" xmlns="http://www.w3.org/2000/svg">
<g clip-path="url(#clip0)">
<path d="M25.6512 3.92995C23.1167 1.39551 19.7469 -0.000141752 16.1628 1.07985e-08C15.5755 1.07985e-08 15.0996 0.47604 15.0996 1.06322C15.0996 1.6504 15.5756 2.12644 16.1628 2.12644C19.179 2.1263 22.0147 3.30081 24.1475 5.43363C26.2804 7.56645 27.455 10.4023 27.4548 13.4186C27.4548 14.0057 27.9307 14.4818 28.518 14.4818C29.1052 14.4818 29.5813 14.0057 29.5813 13.4187C29.5814 9.83423 28.1857 6.46439 25.6512 3.92995Z" fill="#756363"/>
<path d="M21.2775 13.4187C21.2775 14.0059 21.7535 14.4819 22.3409 14.4818C22.928 14.4818 23.4039 14.0057 23.4039 13.4186C23.4037 9.42652 20.1553 6.17831 16.163 6.17774C16.1628 6.17774 16.163 6.17774 16.1628 6.17774C15.5756 6.17774 15.0998 6.65364 15.0996 7.24082C15.0996 7.828 15.5755 8.30404 16.1627 8.30418C18.9828 8.30461 21.2772 10.5989 21.2775 13.4187Z" fill="#756363"/>
<path d="M18.9253 18.8397C17.3046 18.7558 16.479 19.9611 16.083 20.54C15.7515 21.0247 15.8757 21.6863 16.3603 22.0179C16.845 22.3495 17.5066 22.2253 17.8382 21.7406C18.306 21.0566 18.518 20.949 18.8055 20.9626C19.7256 21.0708 23.3498 23.7266 23.7127 24.557C23.8037 24.8016 23.8003 25.0413 23.7027 25.3329C23.3222 26.4622 22.6923 27.2558 21.8809 27.6277C21.11 27.9812 20.1648 27.9491 19.1482 27.5355C15.3523 25.9883 12.0359 23.8291 9.29133 21.1177C9.2902 21.1166 9.28906 21.1156 9.28807 21.1144C6.58238 18.3726 4.42716 15.0605 2.88252 11.2703C2.46871 10.2529 2.43667 9.30758 2.79009 8.53682C3.16207 7.72537 3.95566 7.09552 5.08395 6.71545C5.37655 6.61735 5.61585 6.61423 5.85812 6.70439C6.69154 7.06858 9.34719 10.6926 9.45436 11.6024C9.46967 11.9007 9.36122 12.1125 8.67778 12.5795C8.19295 12.9106 8.06834 13.5722 8.39964 14.0571C8.7308 14.5419 9.39227 14.6664 9.87724 14.3352C10.4565 13.9397 11.6615 13.1163 11.5778 11.4902C11.4857 9.79156 8.18147 5.29328 6.60266 4.71276C5.90051 4.45107 5.16192 4.44653 4.40661 4.70001C2.70716 5.2723 1.47977 6.29271 0.85715 7.6508C0.25324 8.96835 0.272378 10.497 0.913146 12.0722C2.56624 16.1284 4.8791 19.6774 7.78737 22.6211C7.79446 22.6283 7.80169 22.6354 7.80906 22.6424C10.7506 25.5452 14.2956 27.8539 18.3463 29.505C19.1575 29.8348 19.9563 30 20.7203 30C21.4396 30 22.1282 29.8537 22.767 29.5608C24.1253 28.9383 25.1455 27.7111 25.7182 26.0105C25.9711 25.2566 25.967 24.5183 25.7073 23.8194C25.1248 22.2364 20.6265 18.9321 18.9253 18.8397Z" fill="#756363"/>
</g>
<defs>
<clipPath id="clip0">
<rect width="30" height="30" fill="white"/>
</clipPath>
</defs>
</svg>
