<svg width="30" height="30" viewBox="0 0 30 30" fill="none" xmlns="http://www.w3.org/2000/svg">
<g clip-path="url(#clip0)">
<path d="M11.415 27.4049C6.40799 27.4049 2.45062 26.5301 0.557314 25.0053L0.520464 24.9756L0.487048 24.9422C0.0372948 24.4922 -0.110105 23.9019 0.0830712 23.3228L0.100695 23.2748C0.33507 22.6886 0.909334 22.294 1.53166 22.2903C2.81249 22.2681 3.93309 22.1155 4.95001 21.8191C3.32793 21.0647 2.20114 19.7585 1.53075 17.8679C1.3053 17.2783 1.49985 16.6246 2.01941 16.2348C2.14758 16.1385 2.29247 16.0657 2.44582 16.0169C1.54448 14.9764 0.878664 13.7924 0.505816 12.5402L0.494143 12.5013L0.486132 12.4615C0.35956 11.8282 0.642687 11.177 1.16156 10.8966C1.37923 10.7716 1.61566 10.7069 1.85301 10.7014C1.59712 10.1502 1.41104 9.58443 1.30072 9.0152C0.994478 7.43775 1.24716 5.8564 2.05145 4.31511L2.23754 3.94295C2.38654 3.64518 2.67127 3.43598 2.99948 3.38265C3.3277 3.32955 3.66416 3.43804 3.89922 3.6731L4.23819 4.01253C6.91611 6.81999 9.31479 8.15209 13.4619 9.06349C13.6471 7.47162 14.3353 5.9919 15.4456 4.82735C16.767 3.4417 18.5314 2.66419 20.414 2.63764H20.4263C21.7998 2.63764 23.5036 3.42179 24.5341 3.97477C25.418 3.68546 26.483 3.23754 27.588 2.76398C28.1051 2.52137 28.7425 2.63237 29.149 3.03887C29.5475 3.43735 29.658 3.99926 29.4465 4.54537C29.3662 4.76899 29.2751 4.98848 29.1737 5.20317C29.325 5.27253 29.4635 5.3666 29.5804 5.48355C29.9341 5.83718 30.0815 6.39061 29.9558 6.89369L29.9423 6.94153C29.5189 8.30612 28.7054 9.41757 27.6297 10.1152C27.45 19.6827 20.2453 27.4049 11.415 27.4049ZM2.2444 24.0255C4.02854 25.0349 7.42857 25.6455 11.415 25.6455C15.2476 25.6455 18.8644 24.0001 21.5989 21.0123C24.3558 18 25.8739 13.9998 25.8739 9.74854V9.7007C25.8739 9.31572 26.0859 8.96439 26.4269 8.78357C27.1188 8.41713 27.6791 7.79297 28.0435 6.99486C27.6677 7.05414 27.2857 6.90331 27.0515 6.58882C26.7794 6.2233 26.7764 5.7296 27.044 5.36087C27.1884 5.16175 27.3193 4.95461 27.436 4.74038C26.4818 5.14115 25.5757 5.50049 24.789 5.73921C24.5032 5.82573 24.1846 5.79186 23.9234 5.64606C22.5229 4.8658 21.2185 4.39934 20.432 4.39705C17.53 4.44146 15.1705 6.92688 15.1705 9.94034C15.1705 10.2518 15.0323 10.5439 14.7917 10.7419C14.5509 10.9396 14.2378 11.0188 13.932 10.9584C9.15022 10.0163 6.31667 8.60367 3.37004 5.64263C2.94776 6.65451 2.8324 7.67372 3.02764 8.68012C3.22562 9.69956 3.75227 10.7211 4.55084 11.6341C4.85434 11.9806 4.89462 12.4763 4.65109 12.8675C4.40848 13.2573 3.94728 13.4395 3.50394 13.3207C3.15741 13.2278 2.83881 13.1058 2.53668 12.949C3.15215 14.2859 4.21073 15.5223 5.54144 16.4342C5.92711 16.6985 6.08824 17.1913 5.93352 17.6326C5.77857 18.0746 5.34575 18.3591 4.87792 18.3243C4.3682 18.2865 3.91661 18.1897 3.50096 18.0265C4.24712 19.546 5.43936 20.3822 7.27614 20.7017C7.71353 20.7779 8.05411 21.1233 8.12369 21.5611C8.1935 21.999 7.97675 22.4329 7.58467 22.641C6.01912 23.4709 4.308 23.9163 2.2444 24.0255Z" fill="#756363"/>
</g>
<defs>
<clipPath id="clip0">
<rect width="30" height="30" fill="white"/>
</clipPath>
</defs>
</svg>
